<svg xmlns="http://www.w3.org/2000/svg" xmlns:xlink="http://www.w3.org/1999/xlink" xmlns:lucid="lucid" width="1030.75" height="553.75"><g transform="translate(-279.125 -280)" lucid:page-tab-id="XqzS1.q1_oSq"><path d="M921 555.12h200.5" stroke="#5e5e5e" stroke-width="2" fill="none"/><path d="M921.03 556.12H920v-2h1.03" fill="#5e5e5e"/><path d="M1136.76 555.12l-14.26 4.63v-9.27z" stroke="#5e5e5e" stroke-width="2" fill="#5e5e5e"/><path d="M1194.93 533.3l-18.36 7.04v-29.72l18.36 6.54z" stroke="#000" stroke-opacity="0" stroke-width="3" fill="#804998"/><path d="M1159.88 515.5v19.53l13.75 5.25v-29.66zm1.5 18.1l-.75-.23V517.2l.76-.2.77-.2.84-.25v17.56l-.83-.23zm3.45 1.07l-.94-.26V516.3l.93-.26 1-.27 1.06-.3v19.88l-1.07-.33zm4.42 1.4l-1.22-.4v-20.54l1.22-.36 1.3-.36 1.4-.4v22.9l-1.4-.45z" stroke="#000" stroke-opacity="0" stroke-width="3" fill="#68217a"/><path d="M1237.9 533.3l-18.36 7.04v-29.72l18.35 6.54z" stroke="#000" stroke-opacity="0" stroke-width="3" fill="#804998"/><path d="M1202.84 515.5v19.53l13.75 5.25v-29.66zm1.5 18.1l-.74-.23V517.2l.74-.2.8-.2.84-.25v17.56l-.84-.23zm3.45 1.07l-.94-.26V516.3l.93-.26 1-.27 1.06-.3v19.88l-1.06-.33zm4.4 1.4l-1.2-.4v-20.54l1.2-.36 1.3-.36 1.42-.4v22.9l-1.4-.45z" stroke="#000" stroke-opacity="0" stroke-width="3" fill="#68217a"/><path d="M1194.93 592.57l-18.36 7.05V569.9l18.36 6.53z" stroke="#000" stroke-opacity="0" stroke-width="3" fill="#804998"/><path d="M1159.88 574.8v19.5l13.75 5.26V569.9zm1.5 18.08l-.75-.23v-16.17l.76-.2.77-.22.84-.23v17.56l-.83-.25zm3.45 1.07l-.94-.27v-18.12l.93-.27 1-.28 1.06-.3v19.88l-1.07-.32zm4.42 1.4l-1.22-.4V574.4l1.22-.35 1.3-.36 1.4-.43v22.9l-1.4-.44z" stroke="#000" stroke-opacity="0" stroke-width="3" fill="#68217a"/><path d="M1237.9 592.57l-18.36 7.05V569.9l18.35 6.53z" stroke="#000" stroke-opacity="0" stroke-width="3" fill="#804998"/><path d="M1202.84 574.8v19.5l13.75 5.26V569.9zm1.5 18.08l-.74-.23v-16.17l.74-.2.8-.22.84-.23v17.56l-.84-.25zm3.45 1.07l-.94-.27v-18.12l.93-.27 1-.28 1.06-.3v19.88l-1.06-.32zm4.4 1.4l-1.2-.4V574.4l1.2-.35 1.3-.36 1.42-.43v22.9l-1.4-.44z" stroke="#000" stroke-opacity="0" stroke-width="3" fill="#68217a"/><path d="M1217.8 562.85l-18.36 7.04v-29.73l18.35 6.54z" stroke="#000" stroke-opacity="0" stroke-width="3" fill="#804998"/><path d="M1182.74 545.06v19.52l13.75 5.25v-29.66zm1.5 18.1l-.74-.24v-16.17l.74-.2.8-.2.84-.25v17.56l-.84-.24zm3.45 1.07l-.94-.27v-18.12l.93-.27 1-.27 1.06-.3v19.88l-1.06-.33zm4.4 1.4l-1.2-.4v-20.55l1.2-.36 1.3-.35 1.42-.42v22.9l-1.4-.44z" stroke="#000" stroke-opacity="0" stroke-width="3" fill="#68217a"/><path d="M1175.05 562.85l-18.36 7.04v-29.73l18.35 6.54z" stroke="#000" stroke-opacity="0" stroke-width="3" fill="#804998"/><path d="M1140 545.06v19.52l13.75 5.25v-29.66zm1.5 18.1l-.74-.24v-16.17l.74-.2.8-.2.83-.25v17.56l-.83-.24zm3.45 1.07l-.94-.27v-18.12l.95-.27 1-.27 1.06-.3v19.88l-1.05-.33zm4.4 1.4l-1.2-.4v-20.55l1.2-.36 1.32-.35 1.4-.42v22.9l-1.4-.44z" stroke="#000" stroke-opacity="0" stroke-width="3" fill="#68217a"/><path d="M1260 562.85l-18.36 7.04v-29.73l18.36 6.54z" stroke="#000" stroke-opacity="0" stroke-width="3" fill="#804998"/><path d="M1224.95 545.06v19.52l13.75 5.25v-29.66zm1.5 18.1l-.74-.24v-16.17l.75-.2.8-.2.83-.25v17.56l-.83-.24zm3.45 1.07l-.94-.27v-18.12l.94-.27 1-.27 1.06-.3v19.88l-1.06-.33zm4.4 1.4l-1.2-.4v-20.55l1.2-.36 1.32-.35 1.4-.42v22.9l-1.4-.44z" stroke="#000" stroke-opacity="0" stroke-width="3" fill="#68217a"/><path d="M1172 512.22l5.8.1 15.97 6.2 10.54-2.42 11.25-3.88 5.32.1 15.63 5.76.6 14.46 5.55 10.42 15.74 4.82.7 13.6-16.2 6.37-4.98.78-1.2 9.9.25 12.82-16.45 6.63-5.2.26-11.72-4.4-9.94-2.3-15.98 6.7-4.85.17-12.2-4.46.13-18.34-3.32-7.23-5.1.08-11.58-5.42v-16.18l11.6-4.48 6.27.43 2.72-9.13-.24-17.2z" stroke="#000" stroke-opacity="0" stroke-width="0" fill-opacity="0"/><use xlink:href="#a" transform="matrix(1,0,0,1,1110,608.6176553649111) translate(1.125 14.4)"/><use xlink:href="#b" transform="matrix(1,0,0,1,1110,608.6176553649111) translate(104.87500000000001 14.4)"/><path d="M1199.66 303.17c-1.14.1-2.05.34-2.96.8l-39.44 19.43c-2.16 1.02-3.64 2.84-4.1 5.23l-9.77 43.76c-.47 2.04-.13 4.08 1 5.9.13.23.24.34.47.57l27.28 35c1.48 1.94 3.52 2.97 5.9 2.97h43.9c2.38 0 4.42-1.03 5.9-2.96l27.28-35c1.48-1.94 2.05-4.2 1.48-6.6l-9.77-43.65c-.45-2.4-1.93-4.2-4.1-5.23l-39.43-19.44c-1.25-.57-2.4-.9-3.64-.8z" stroke="#000" stroke-opacity="0" stroke-width="3.83" fill="#326ce5"/><path d="M1199.64 300c-1.2.12-2.16.36-3.12.84l-41.64 20.52c-2.28 1.08-3.84 3-4.32 5.52l-10.32 46.2c-.48 2.16-.12 4.32 1.08 6.24.12.24.24.36.48.6l28.8 36.96c1.56 2.04 3.72 3.12 6.24 3.12h46.32c2.52 0 4.68-1.08 6.24-3.12l28.8-36.96c1.56-2.04 2.16-4.44 1.56-6.84l-10.32-46.2c-.48-2.52-2.04-4.44-4.32-5.52l-41.64-20.52c-1.32-.6-2.52-.96-3.84-.84zm0 3.24c1.32-.12 2.4.12 3.6.72l39.6 19.44c2.04 1.08 3.48 2.88 4.08 5.28l9.72 43.68c.48 2.4 0 4.56-1.44 6.48l-27.36 35.04c-1.44 1.92-3.48 3-5.88 3h-43.92c-2.4 0-4.44-1.08-5.88-3l-27.36-35.04c-.12-.12-.24-.36-.36-.6-1.2-1.8-1.56-3.72-1.08-5.88l9.72-43.68c.6-2.4 1.92-4.2 4.08-5.28l39.6-19.44c.96-.48 1.8-.72 2.88-.84z" stroke="#000" stroke-opacity="0" stroke-width="3.83" fill="#fff"/><path d="M1188.7 394.83v-1.62h1.66v1.63zm0 12.4V397h1.66v10.23zM1199.2 407.23v-6.5c0-.66-.07-1.18-.2-1.55-.12-.38-.33-.65-.6-.8-.3-.17-.7-.25-1.25-.25-.8 0-1.42.28-1.88.84-.45.56-.68 1.33-.68 2.33v5.93h-1.67v-8.04c0-1.2 0-1.93-.05-2.2h1.55l.03.26v.48c.03.18.04.5.05 1h.04c.38-.7.8-1.2 1.3-1.48.5-.3 1.13-.44 1.87-.44 1.1 0 1.9.28 2.4.84.5.55.75 1.47.75 2.76v6.8zM1207.1 411.24c-1.07 0-1.94-.22-2.6-.66-.63-.44-1.03-1.05-1.22-1.86l1.66-.25c.1.48.35.84.72 1.08.38.26.88.4 1.5.4 1.63 0 2.45-1 2.45-3v-1.63c-.32.66-.75 1.15-1.3 1.48-.53.33-1.17.5-1.9.5-1.2 0-2.1-.4-2.68-1.25-.57-.83-.85-2.14-.85-3.93 0-1.8.3-3.14.92-4 .6-.85 1.53-1.28 2.8-1.28.7 0 1.3.17 1.8.5.53.33.93.8 1.2 1.4h.03l.04-.98c.03-.46.04-.72.07-.76h1.57c-.02.34-.05 1.05-.05 2.1v7.83c0 2.87-1.38 4.3-4.14 4.3zm2.5-9.13c0-.83-.1-1.53-.32-2.14-.22-.6-.53-1.06-.93-1.38-.4-.32-.85-.47-1.35-.47-.85 0-1.46.32-1.85.96-.38.62-.58 1.64-.58 3.05 0 1.4.18 2.4.54 3.02.38.62 1 .92 1.86.92.53 0 1-.16 1.4-.47.4-.32.7-.77.92-1.36.22-.58.33-1.27.33-2.1z" stroke="#000" stroke-opacity="0" fill="#fff"/><path d="M1218.27 385.97h-15.07l-32.78-42.2h-9.45v-13.83h15.38l32.78 42.27h9.14v-10.94l20.76 17.8-20.76 17.87zm-16.47-32.56l7.33-9.47h9.14v10.96l20.76-17.8-20.76-17.88v10.96h-15.07l-9.76 12.5zm-23.9 9.33l-7.48 9.64h-9.45v13.83h15.38l9.83-12.74z" stroke="#000" stroke-opacity="0" stroke-width="3.77" fill="#fff"/><use xlink:href="#c" transform="matrix(1,0,0,1,1110,429) translate(50.55555555555556 17.77777777777778)"/><path d="M921 555.12h104.58c3.3 0 6-2.7 6-6V366c0-3.3 2.7-6 6-6h87.08" stroke="#5e5e5e" stroke-width="2" fill="none"/><path d="M921.03 556.12H920v-2h1.03" fill="#5e5e5e"/><path d="M1139.93 360l-14.27 4.64v-9.28z" stroke="#5e5e5e" stroke-width="2" fill="#5e5e5e"/><path d="M921 555.12h104.58c3.3 0 6 2.68 6 6V707.1c0 3.3 2.7 6 6 6h87.08" stroke="#5e5e5e" stroke-width="2" fill="none"/><path d="M921.03 556.12H920v-2h1.03" fill="#5e5e5e"/><path d="M1139.93 713.1l-14.27 4.62v-9.27z" stroke="#5e5e5e" stroke-width="2" fill="#5e5e5e"/><path d="M780 510.78c0-3.3 2.7-6 6-6h128c3.3 0 6 2.7 6 6v88.67c0 3.3-2.7 6-6 6H786c-3.3 0-6-2.7-6-6z" stroke="#000" stroke-opacity="0" stroke-width="3" fill="#fff" fill-opacity="0"/><use xlink:href="#d" transform="matrix(1,0,0,1,785,509.7843220315778) translate(0 30.222222222222214)"/><use xlink:href="#e" transform="matrix(1,0,0,1,785,509.7843220315778) translate(0 75.55555555555554)"/><path d="M664.96 500.12h102.26c8.56 0 12.78 4.22 12.78 12.76v79.93c0 8.55-4.22 12.77-12.78 12.77H664.96c-8.56 0-12.78-4.22-12.78-12.76V512.9c0-8.54 4.22-12.76 12.78-12.76z" stroke="#000" stroke-opacity="0" stroke-width=".91" fill="#004d93"/><path d="M682.47 568.24v-17.4h58.16c-2.04 3.8-2.94 7.5-2.94 11.7v8.55c1.78-.64 3.32-1.28 5.1-2.12l4.22-2 3.45 1.68v-6.1c0-6.45 5.24-11.72 11.76-11.72v-12.76H717.1v-7.6h6.4v-12.86h-53.8v12.87h6.5v7.58h-6.5v33.96c4.47 0 8.94-1.9 11.24-3.06zM689 530.5h15.33v7.58H689z" stroke="#000" stroke-opacity="0" stroke-width=".91" fill="#fff"/><path d="M749.83 571.93l-2.8-1.37-2.82 1.37c-2.55 1.16-7.66 3.27-12.64 3.27-5.12 0-10.1-2.1-12.66-3.27l-2.8-1.37-2.82 1.37c-2.56 1.16-7.54 3.27-12.66 3.27-4.98 0-10.1-2.1-12.65-3.27l-2.8-1.37-2.82 1.37c-2.56 1.16-7.55 3.27-12.66 3.27v12.87c5.62-.2 10.35-1.16 15.46-3.38 5.24 2.2 9.84 3.16 15.46 3.37 5.63-.2 10.36-1.16 15.47-3.38 5.1 2.2 9.83 3.16 15.46 3.37 5.62-.2 10.35-1.16 15.46-3.38 5.12 2.2 9.84 3.16 15.47 3.37V575.2c-5.12 0-10.1-2.1-12.67-3.27z" stroke="#000" stroke-opacity="0" stroke-width=".91" fill="#fff"/><path d="M393.7 300.24h-75.5c-8.8 0-16.1 7.32-16.1 16.08v87.84c0 8.88 7.3 16.08 16.1 16.08h83.6c8.9 0 16.1-7.32 16.1-16.08V324l-24.2-23.76zm14.23 103.92c0 3.48-2.66 6.12-6.13 6.12h-83.6c-3.47 0-6.13-2.64-6.13-6.12v-87.84c0-3.48 2.66-6.12 6.13-6.12h70.63v19.2h19.1v74.76z" stroke="#000" stroke-opacity="0" fill="#2a3282"/><path d="M336.96 341.64v8.04c0 4.68-1.85 6.96-5.33 6.96v6.48c3.82 0 5.33 2.28 5.33 6.48v8.88c0 4.68 1.16 7.68 3.13 9.6 2.2 2.76 6.12 3.84 11.8 3.84v-6.84c-1.86 0-3.48-.48-4.64-1.56-.7-1.2-1.5-2.64-1.5-4.92v-7.32c.46-5.76-1.5-9.6-4.98-11.16 3.82-1.44 5.44-4.92 5.44-10.68v-7.68c0-4.32 1.85-6.24 5.68-6.24v-6.84c-5.68 0-9.6 1.2-11.8 3.48-1.98 1.44-3.14 4.92-3.14 9.48zM379.22 349.68v-8.4c0-4.68-1.16-7.68-3-9.96-2.33-1.92-6.26-3.12-11.94-3.12v6.96c3.82 0 5.68 1.92 5.68 6.12v7.32c0 6.12 1.97 9.96 5.44 11.52-3.82 1.56-5.44 4.92-5.44 10.8v7.68c0 2.28-.35 3.84-1.16 4.92-1.16 1.2-2.2 1.56-4.63 1.56v6.84c5.8 0 9.6-1.08 11.92-3.48 1.96-1.92 3-5.4 3-9.96v-8.4c0-4.56 1.97-6.84 5.45-6.84v-6.6c-3.48 0-5.33-2.28-5.33-6.96z" stroke="#000" stroke-opacity="0" fill="#2a3282"/><use xlink:href="#f" transform="matrix(1,0,0,1,272.1091740497285,429.2399990068179) translate(47.599999999999994 14.4)"/><use xlink:href="#g" transform="matrix(1,0,0,1,272.1091740497285,429.2399990068179) translate(97.44999999999999 14.4)"/><path d="M417.84 548.05l-52.44-52.8c-3-2.88-7.68-2.88-10.44 0l-11.52 11.28 13.68 13.68c.84-.35 2.04-.6 3.24-.6 5.04 0 9.12 4.1 9.12 9.13 0 1.2-.24 2.4-.6 3.36l13.32 13.3c.84-.35 2.16-.6 3.24-.6 5.04 0 9.24 4.1 9.24 9.13 0 5.04-4.2 9.24-9.24 9.24s-9.12-4.2-9.12-9.24c0-1.2.24-2.4.6-3.24l-12.48-12.5v32.65c3 1.44 5.04 4.68 5.04 8.04 0 5.03-4.08 9.1-9.12 9.1-5.04 0-9.24-4.07-9.24-9.1 0-3.97 2.4-7.2 6-8.65V537c-3.6-1.07-6-4.67-6-8.5 0-1.2.36-2.4.6-3.25l-13.56-13.68-35.88 36.48c-3 2.88-3 7.68 0 10.32l52.44 52.44c3 3 7.68 3 10.32 0l52.44-52.43c3.36-2.88 3.36-7.68.36-10.32z" stroke="#000" stroke-opacity="0" fill="#0078d7"/><use xlink:href="#h" transform="matrix(1,0,0,1,270,622.0854928593492) translate(31.124999999999993 14.4)"/><use xlink:href="#i" transform="matrix(1,0,0,1,270,622.0854928593492) translate(61.07499999999999 14.4)"/><path d="M418.9 361.2H524c3.3 0 6 2.7 6 6v179.9c0 3.3 2.7 6 6 6h97.68" stroke="#5e5e5e" stroke-width="2" fill="none"/><path d="M418.92 362.2h-1.03v-2h1.02" fill="#5e5e5e"/><path d="M648.94 553.1l-14.26 4.62v-9.27z" stroke="#5e5e5e" stroke-width="2" fill="#5e5e5e"/><path d="M421 552.97h115.03c.03 0 .06.02.06.06 0 .03.02.06.05.06h97.53" stroke="#5e5e5e" stroke-width="2" fill="none"/><path d="M421.03 553.97h-1.1l.1-.5-.08-1.5h1.08" fill="#5e5e5e"/><path d="M648.94 553.1l-14.26 4.62v-9.27z" stroke="#5e5e5e" stroke-width="2" fill="#5e5e5e"/><path d="M367 746.52l-28.2-28.23-15.54 15.53-2.7-2.72 16.85-16.88c.8-.76 1.98-.76 2.76 0l29.54 29.6z" stroke="#fff" stroke-opacity="0" fill="#d86613"/><path d="M397.28 730.54l-21.83-21.83-21.35 21.42-2.72-2.7 22.75-22.8c.73-.73 1.95-.73 2.68 0l23.2 23.22zM352.9 711.05c-4.94.02-8.96-4-8.98-8.97-.02-4.96 4-9 8.96-9 4.95-.02 8.97 4 9 8.96v.04c-.03 4.94-4.03 8.95-8.97 8.97zm0-14.1c-2.84 0-5.14 2.3-5.14 5.13 0 2.84 2.3 5.14 5.13 5.14s5.13-2.3 5.13-5.14-2.28-5.14-5.12-5.14z" stroke="#fff" stroke-opacity="0" fill="#d86613"/><path d="M398 753.1H321.9c-1.04 0-1.92-.9-1.92-1.93V675c0-1.03.88-1.9 1.92-1.9H398c1.03 0 1.9.87 1.9 1.9v76.17c0 1.04-.87 1.92-1.9 1.92zm-74.16-3.85h72.23v-72.32h-72.23z" stroke="#fff" stroke-opacity="0" fill="#d86613"/><use xlink:href="#j" transform="matrix(1,0,0,1,290,762.0854928593492) translate(18.30246913580247 17.77777777777778)"/><use xlink:href="#k" transform="matrix(1,0,0,1,290,762.0854928593492) translate(37.9320987654321 44.44444444444444)"/><path d="M400.9 713.1H524c3.3 0 6-2.7 6-6v-148c0-3.33 2.7-6 6-6h97.68" stroke="#5e5e5e" stroke-width="2" fill="none"/><path d="M400.93 714.1h-1.03v-2h1.03" fill="#5e5e5e"/><path d="M648.94 553.1l-14.26 4.62v-9.27z" stroke="#5e5e5e" stroke-width="2" fill="#5e5e5e"/><path d="M1199.66 656.25c-1.14.12-2.05.34-2.96.8l-39.44 19.43c-2.16 1.03-3.64 2.85-4.1 5.23l-9.77 43.78c-.47 2.04-.12 4.1 1 5.9.13.24.24.35.47.58l27.28 35c1.48 1.94 3.52 2.96 5.9 2.96h43.9c2.38 0 4.42-1.02 5.9-2.95l27.28-35c1.48-1.95 2.05-4.22 1.48-6.6l-9.77-43.66c-.45-2.37-1.93-4.2-4.1-5.22l-39.43-19.43c-1.25-.57-2.4-.9-3.64-.8z" stroke="#000" stroke-opacity="0" stroke-width="0" fill="#326ce5"/><path d="M1199.64 653.1c-1.2.1-2.16.35-3.12.83l-41.64 20.52c-2.28 1.08-3.84 3-4.32 5.52l-10.32 46.2c-.48 2.16-.12 4.32 1.08 6.24.12.25.24.37.48.6l28.8 36.97c1.56 2.04 3.72 3.12 6.24 3.12h46.32c2.52 0 4.68-1.1 6.24-3.13l28.8-36.96c1.56-2.03 2.16-4.43 1.56-6.83l-10.32-46.2c-.48-2.52-2.04-4.44-4.32-5.52l-41.64-20.52c-1.32-.6-2.52-.96-3.84-.84zm0 3.1c1.32 0 2.4.25 3.6.85l39.6 19.44c2.04 1.07 3.48 2.87 4.08 5.27l9.72 43.68c.48 2.4 0 4.56-1.44 6.48l-27.36 35.04c-1.44 1.92-3.48 3-5.88 3h-43.92c-2.4 0-4.44-1.08-5.88-3l-27.36-35.04c-.12-.12-.24-.36-.36-.6-1.2-1.8-1.56-3.72-1.08-5.88l9.72-43.68c.6-2.4 1.92-4.2 4.08-5.28l39.6-19.45c.96-.48 1.8-.72 2.88-.84z" stroke="#000" stroke-opacity="0" stroke-width="0" fill="#fff"/><path d="M1197.07 743.5c-16.25.8-30.08-12.06-30.9-28.77-.9-16.76 11.52-31.1 27.77-32.07 16.25-.97 30.2 11.7 31.25 28.48l-11.7.73c-.66-10.06-9.05-17.75-18.85-17.14-9.8.55-17.32 9.2-16.78 19.33.47 10.12 8.86 17.87 18.67 17.44z" stroke="#000" stroke-opacity="0" fill="#fff"/><path d="M1203.14 711.15l9.28 23.46 21.47-23.45z" stroke="#000" stroke-opacity="0" fill="#fff"/><g><use xlink:href="#l" transform="matrix(1,0,0,1,1110,782.0854928593492) translate(26.57407407407407 17.77777777777778)"/></g><defs><path d="M195 0l-88-114-31 24V0H24v-248h52v113l112-113h60L142-143 257 0h-62" id="m"/><path d="M85 4C-2 5 27-109 22-190h50c7 57-23 150 33 157 60-5 35-97 40-157h50l1 190h-47c-2-12 1-28-3-38-12 25-28 42-61 42" id="n"/><path d="M135-194c52 0 70 43 70 98 0 56-19 99-73 100-30 1-46-15-58-35L72 0H24l1-261h50v104c11-23 29-37 60-37zM114-30c31 0 40-27 40-66 0-37-7-63-39-63s-41 28-41 65c0 36 8 64 40 64" id="o"/><path d="M185-48c-13 30-37 53-82 52C43 2 14-33 14-96s30-98 90-98c62 0 83 45 84 108H66c0 31 8 55 39 56 18 0 30-7 34-22zm-45-69c5-46-57-63-70-21-2 6-4 13-4 21h74" id="p"/><path d="M135-150c-39-12-60 13-60 57V0H25l-1-190h47c2 13-1 29 3 40 6-28 27-53 61-41v41" id="q"/><path d="M135-194c87-1 58 113 63 194h-50c-7-57 23-157-34-157-59 0-34 97-39 157H25l-1-190h47c2 12-1 28 3 38 12-26 28-41 61-42" id="r"/><path d="M115-3C79 11 28 4 28-45v-112H4v-33h27l15-45h31v45h36v33H77v99c-1 23 16 31 38 25v30" id="s"/><path d="M137-138c1-29-70-34-71-4 15 46 118 7 119 86 1 83-164 76-172 9l43-7c4 19 20 25 44 25 33 8 57-30 24-41C81-84 22-81 20-136c-2-80 154-74 161-7" id="t"/><g id="a"><use transform="matrix(0.05,0,0,0.05,0,0)" xlink:href="#m"/><use transform="matrix(0.05,0,0,0.05,12.950000000000001,0)" xlink:href="#n"/><use transform="matrix(0.05,0,0,0.05,23.900000000000002,0)" xlink:href="#o"/><use transform="matrix(0.05,0,0,0.05,34.85,0)" xlink:href="#p"/><use transform="matrix(0.05,0,0,0.05,44.85,0)" xlink:href="#q"/><use transform="matrix(0.05,0,0,0.05,51.85,0)" xlink:href="#r"/><use transform="matrix(0.05,0,0,0.05,62.800000000000004,0)" xlink:href="#p"/><use transform="matrix(0.05,0,0,0.05,72.80000000000001,0)" xlink:href="#s"/><use transform="matrix(0.05,0,0,0.05,78.75000000000001,0)" xlink:href="#p"/><use transform="matrix(0.05,0,0,0.05,88.75000000000001,0)" xlink:href="#t"/></g><path d="M169-182c-1-43-94-46-97-3 18 66 151 10 154 114 3 95-165 93-204 36-6-8-10-19-12-30l50-8c3 46 112 56 116 5-17-69-150-10-154-114-4-87 153-88 188-35 5 8 8 18 10 28" id="u"/><path d="M128 0H69L1-190h53L99-40l48-150h52" id="v"/><path d="M25-224v-37h50v37H25zM25 0v-190h50V0H25" id="w"/><path d="M190-63c-7 42-38 67-86 67-59 0-84-38-90-98-12-110 154-137 174-36l-49 2c-2-19-15-32-35-32-30 0-35 28-38 64-6 74 65 87 74 30" id="x"/><g id="b"><use transform="matrix(0.05,0,0,0.05,0,0)" xlink:href="#u"/><use transform="matrix(0.05,0,0,0.05,12,0)" xlink:href="#p"/><use transform="matrix(0.05,0,0,0.05,22,0)" xlink:href="#q"/><use transform="matrix(0.05,0,0,0.05,29,0)" xlink:href="#v"/><use transform="matrix(0.05,0,0,0.05,39,0)" xlink:href="#w"/><use transform="matrix(0.05,0,0,0.05,44,0)" xlink:href="#x"/><use transform="matrix(0.05,0,0,0.05,54,0)" xlink:href="#p"/><use transform="matrix(0.05,0,0,0.05,64,0)" xlink:href="#t"/></g><path fill="#333" d="M24 0v-248h52V0H24" id="y"/><path fill="#333" d="M135-194c87-1 58 113 63 194h-50c-7-57 23-157-34-157-59 0-34 97-39 157H25l-1-190h47c2 12-1 28 3 38 12-26 28-41 61-42" id="z"/><path fill="#333" d="M195-6C206 82 75 100 31 46c-4-6-6-13-8-21l49-6c3 16 16 24 34 25 40 0 42-37 40-79-11 22-30 35-61 35-53 0-70-43-70-97 0-56 18-96 73-97 30 0 46 14 59 34l2-30h47zm-90-29c32 0 41-27 41-63 0-35-9-62-40-62-32 0-39 29-40 63 0 36 9 62 39 62" id="A"/><path fill="#333" d="M135-150c-39-12-60 13-60 57V0H25l-1-190h47c2 13-1 29 3 40 6-28 27-53 61-41v41" id="B"/><path fill="#333" d="M185-48c-13 30-37 53-82 52C43 2 14-33 14-96s30-98 90-98c62 0 83 45 84 108H66c0 31 8 55 39 56 18 0 30-7 34-22zm-45-69c5-46-57-63-70-21-2 6-4 13-4 21h74" id="C"/><path fill="#333" d="M137-138c1-29-70-34-71-4 15 46 118 7 119 86 1 83-164 76-172 9l43-7c4 19 20 25 44 25 33 8 57-30 24-41C81-84 22-81 20-136c-2-80 154-74 161-7" id="D"/><g id="c"><use transform="matrix(0.06172839506172839,0,0,0.06172839506172839,0,0)" xlink:href="#y"/><use transform="matrix(0.06172839506172839,0,0,0.06172839506172839,6.172839506172839,0)" xlink:href="#z"/><use transform="matrix(0.06172839506172839,0,0,0.06172839506172839,19.691358024691358,0)" xlink:href="#A"/><use transform="matrix(0.06172839506172839,0,0,0.06172839506172839,33.20987654320987,0)" xlink:href="#B"/><use transform="matrix(0.06172839506172839,0,0,0.06172839506172839,41.85185185185185,0)" xlink:href="#C"/><use transform="matrix(0.06172839506172839,0,0,0.06172839506172839,54.197530864197525,0)" xlink:href="#D"/><use transform="matrix(0.06172839506172839,0,0,0.06172839506172839,66.5432098765432,0)" xlink:href="#D"/></g><path fill="#333" d="M24 0v-248h195v40H76v63h132v40H76v65h150V0H24" id="E"/><path fill="#333" d="M24-248c93 1 206-16 204 79-1 75-69 88-152 82V0H24v-248zm52 121c47 0 100 7 100-41 0-47-54-39-100-39v80" id="F"/><path fill="#333" d="M175 0L67-191c6 58 2 128 3 191H24v-248h59L193-55c-6-58-2-129-3-193h46V0h-61" id="G"/><path fill="#333" d="M140-251c80 0 125 45 125 126S219 4 139 4C58 4 15-44 15-125s44-126 125-126zm-1 214c52 0 73-35 73-88 0-50-21-86-72-86-52 0-73 35-73 86s22 88 72 88" id="H"/><g id="d"><use transform="matrix(0.10493827160493824,0,0,0.10493827160493824,0,0)" xlink:href="#E"/><use transform="matrix(0.10493827160493824,0,0,0.10493827160493824,25.185185185185176,0)" xlink:href="#F"/><use transform="matrix(0.10493827160493824,0,0,0.10493827160493824,50.37037037037035,0)" xlink:href="#y"/><use transform="matrix(0.10493827160493824,0,0,0.10493827160493824,60.864197530864175,0)" xlink:href="#G"/><use transform="matrix(0.10493827160493824,0,0,0.10493827160493824,88.04320987654317,0)" xlink:href="#y"/><use transform="matrix(0.10493827160493824,0,0,0.10493827160493824,98.537037037037,0)" xlink:href="#H"/></g><path fill="#333" d="M199 0l-22-63H83L61 0H9l90-248h61L250 0h-51zm-33-102l-36-108c-10 38-24 72-36 108h72" id="I"/><g id="e"><use transform="matrix(0.10493827160493824,0,0,0.10493827160493824,0,0)" xlink:href="#I"/><use transform="matrix(0.10493827160493824,0,0,0.10493827160493824,27.179012345679002,0)" xlink:href="#F"/><use transform="matrix(0.10493827160493824,0,0,0.10493827160493824,52.364197530864175,0)" xlink:href="#y"/></g><path d="M67-125c0 53 21 87 73 88 37 1 54-22 65-47l45 17C233-25 199 4 140 4 58 4 20-42 15-125 8-235 124-281 211-232c18 10 29 29 36 50l-46 12c-8-25-30-41-62-41-52 0-71 34-72 86" id="J"/><path d="M110-194c64 0 96 36 96 99 0 64-35 99-97 99-61 0-95-36-95-99 0-62 34-99 96-99zm-1 164c35 0 45-28 45-65 0-40-10-65-43-65-34 0-45 26-45 65 0 36 10 65 43 65" id="K"/><path d="M88-194c31-1 46 15 58 34l-1-101h50l1 261h-48c-2-10 0-23-3-31C134-8 116 4 84 4 32 4 16-41 15-95c0-56 19-97 73-99zm17 164c33 0 40-30 41-66 1-37-9-64-41-64s-38 30-39 65c0 43 13 65 39 65" id="L"/><g id="f"><use transform="matrix(0.05,0,0,0.05,0,0)" xlink:href="#J"/><use transform="matrix(0.05,0,0,0.05,12.950000000000001,0)" xlink:href="#K"/><use transform="matrix(0.05,0,0,0.05,23.900000000000002,0)" xlink:href="#L"/><use transform="matrix(0.05,0,0,0.05,34.85,0)" xlink:href="#p"/></g><path d="M76-208v77h127v40H76V0H24v-248h183v40H76" id="M"/><path d="M25 0v-261h50V0H25" id="N"/><g id="g"><use transform="matrix(0.05,0,0,0.05,0,0)" xlink:href="#M"/><use transform="matrix(0.05,0,0,0.05,10.950000000000001,0)" xlink:href="#w"/><use transform="matrix(0.05,0,0,0.05,15.950000000000001,0)" xlink:href="#N"/><use transform="matrix(0.05,0,0,0.05,20.950000000000003,0)" xlink:href="#p"/></g><path d="M67-125c0 54 23 88 75 88 28 0 53-7 68-21v-34h-60v-39h108v91C232-14 192 4 140 4 58 4 20-42 15-125 8-236 126-280 215-234c19 10 29 26 37 47l-47 15c-11-23-29-39-63-39-53 1-75 33-75 86" id="O"/><g id="h"><use transform="matrix(0.05,0,0,0.05,0,0)" xlink:href="#O"/><use transform="matrix(0.05,0,0,0.05,14,0)" xlink:href="#w"/><use transform="matrix(0.05,0,0,0.05,19,0)" xlink:href="#s"/></g><path d="M135-194c53 0 70 44 70 98 0 56-19 98-73 100-31 1-45-17-59-34 3 33 2 69 2 105H25l-1-265h48c2 10 0 23 3 31 11-24 29-35 60-35zM114-30c33 0 39-31 40-66 0-38-9-64-40-64-56 0-55 130 0 130" id="P"/><path d="M123 10C108 53 80 86 19 72V37c35 8 53-11 59-39L3-190h52l48 148c12-52 28-100 44-148h51" id="Q"/><g id="i"><use transform="matrix(0.05,0,0,0.05,0,0)" xlink:href="#q"/><use transform="matrix(0.05,0,0,0.05,7,0)" xlink:href="#p"/><use transform="matrix(0.05,0,0,0.05,17,0)" xlink:href="#P"/><use transform="matrix(0.05,0,0,0.05,27.950000000000003,0)" xlink:href="#K"/><use transform="matrix(0.05,0,0,0.05,38.900000000000006,0)" xlink:href="#t"/><use transform="matrix(0.05,0,0,0.05,48.900000000000006,0)" xlink:href="#w"/><use transform="matrix(0.05,0,0,0.05,53.900000000000006,0)" xlink:href="#s"/><use transform="matrix(0.05,0,0,0.05,59.85,0)" xlink:href="#K"/><use transform="matrix(0.05,0,0,0.05,70.80000000000001,0)" xlink:href="#q"/><use transform="matrix(0.05,0,0,0.05,77.80000000000001,0)" xlink:href="#Q"/></g><path fill="#333" d="M67-125c0 53 21 87 73 88 37 1 54-22 65-47l45 17C233-25 199 4 140 4 58 4 20-42 15-125 8-235 124-281 211-232c18 10 29 29 36 50l-46 12c-8-25-30-41-62-41-52 0-71 34-72 86" id="R"/><path fill="#333" d="M110-194c64 0 96 36 96 99 0 64-35 99-97 99-61 0-95-36-95-99 0-62 34-99 96-99zm-1 164c35 0 45-28 45-65 0-40-10-65-43-65-34 0-45 26-45 65 0 36 10 65 43 65" id="S"/><path fill="#333" d="M115-3C79 11 28 4 28-45v-112H4v-33h27l15-45h31v45h36v33H77v99c-1 23 16 31 38 25v30" id="T"/><path fill="#333" d="M133-34C117-15 103 5 69 4 32 3 11-16 11-54c-1-60 55-63 116-61 1-26-3-47-28-47-18 1-26 9-28 27l-52-2c7-38 36-58 82-57s74 22 75 68l1 82c-1 14 12 18 25 15v27c-30 8-71 5-69-32zm-48 3c29 0 43-24 42-57-32 0-66-3-65 30 0 17 8 27 23 27" id="U"/><path fill="#333" d="M25-224v-37h50v37H25zM25 0v-190h50V0H25" id="V"/><g id="j"><use transform="matrix(0.06172839506172839,0,0,0.06172839506172839,0,0)" xlink:href="#R"/><use transform="matrix(0.06172839506172839,0,0,0.06172839506172839,15.987654320987653,0)" xlink:href="#S"/><use transform="matrix(0.06172839506172839,0,0,0.06172839506172839,29.50617283950617,0)" xlink:href="#z"/><use transform="matrix(0.06172839506172839,0,0,0.06172839506172839,43.02469135802469,0)" xlink:href="#T"/><use transform="matrix(0.06172839506172839,0,0,0.06172839506172839,50.37037037037037,0)" xlink:href="#U"/><use transform="matrix(0.06172839506172839,0,0,0.06172839506172839,62.716049382716044,0)" xlink:href="#V"/><use transform="matrix(0.06172839506172839,0,0,0.06172839506172839,68.88888888888889,0)" xlink:href="#z"/><use transform="matrix(0.06172839506172839,0,0,0.06172839506172839,82.4074074074074,0)" xlink:href="#C"/><use transform="matrix(0.06172839506172839,0,0,0.06172839506172839,94.75308641975309,0)" xlink:href="#B"/></g><path fill="#333" d="M220-157c-53 9-28 100-34 157h-49v-107c1-27-5-49-29-50C55-147 81-57 75 0H25l-1-190h47c2 12-1 28 3 38 10-53 101-56 108 0 13-22 24-43 59-42 82 1 51 116 57 194h-49v-107c-1-25-5-48-29-50" id="W"/><g id="k"><use transform="matrix(0.06172839506172839,0,0,0.06172839506172839,0,0)" xlink:href="#y"/><use transform="matrix(0.06172839506172839,0,0,0.06172839506172839,6.172839506172839,0)" xlink:href="#W"/><use transform="matrix(0.06172839506172839,0,0,0.06172839506172839,25.925925925925924,0)" xlink:href="#U"/><use transform="matrix(0.06172839506172839,0,0,0.06172839506172839,38.2716049382716,0)" xlink:href="#A"/><use transform="matrix(0.06172839506172839,0,0,0.06172839506172839,51.79012345679012,0)" xlink:href="#C"/></g><path fill="#333" d="M24-248c120-7 223 5 221 122C244-46 201 0 124 0H24v-248zM76-40c74 7 117-18 117-86 0-67-45-88-117-82v168" id="X"/><path fill="#333" d="M135-194c53 0 70 44 70 98 0 56-19 98-73 100-31 1-45-17-59-34 3 33 2 69 2 105H25l-1-265h48c2 10 0 23 3 31 11-24 29-35 60-35zM114-30c33 0 39-31 40-66 0-38-9-64-40-64-56 0-55 130 0 130" id="Y"/><path fill="#333" d="M25 0v-261h50V0H25" id="Z"/><path fill="#333" d="M123 10C108 53 80 86 19 72V37c35 8 53-11 59-39L3-190h52l48 148c12-52 28-100 44-148h51" id="aa"/><g id="l"><use transform="matrix(0.06172839506172839,0,0,0.06172839506172839,0,0)" xlink:href="#X"/><use transform="matrix(0.06172839506172839,0,0,0.06172839506172839,15.987654320987653,0)" xlink:href="#C"/><use transform="matrix(0.06172839506172839,0,0,0.06172839506172839,28.333333333333332,0)" xlink:href="#Y"/><use transform="matrix(0.06172839506172839,0,0,0.06172839506172839,41.85185185185185,0)" xlink:href="#Z"/><use transform="matrix(0.06172839506172839,0,0,0.06172839506172839,48.02469135802469,0)" xlink:href="#S"/><use transform="matrix(0.06172839506172839,0,0,0.06172839506172839,61.54320987654321,0)" xlink:href="#aa"/><use transform="matrix(0.06172839506172839,0,0,0.06172839506172839,73.88888888888889,0)" xlink:href="#W"/><use transform="matrix(0.06172839506172839,0,0,0.06172839506172839,93.64197530864197,0)" xlink:href="#C"/><use transform="matrix(0.06172839506172839,0,0,0.06172839506172839,105.98765432098766,0)" xlink:href="#z"/><use transform="matrix(0.06172839506172839,0,0,0.06172839506172839,119.50617283950618,0)" xlink:href="#T"/></g></defs></g></svg>